<svg width="48" height="48" viewBox="0 0 48 48" fill="none" xmlns="http://www.w3.org/2000/svg">
<rect width="48" height="48" rx="24" fill="url(#paint0_radial)"/>
<path d="M23.1328 31H20.0303L18.29 24.25C18.2256 24.0098 18.1143 23.5146 17.9561 22.7646C17.8037 22.0088 17.7158 21.502 17.6924 21.2441C17.6572 21.5605 17.5693 22.0703 17.4287 22.7734C17.2881 23.4707 17.1797 23.9688 17.1035 24.2676L15.3721 31H12.2783L9 18.1504H11.6807L13.3242 25.1641C13.6113 26.459 13.8193 27.5811 13.9482 28.5303C13.9834 28.1963 14.0625 27.6807 14.1855 26.9834C14.3145 26.2803 14.4346 25.7354 14.5459 25.3486L16.418 18.1504H18.9932L20.8652 25.3486C20.9473 25.6709 21.0498 26.1631 21.1729 26.8252C21.2959 27.4873 21.3896 28.0557 21.4541 28.5303C21.5127 28.0732 21.6064 27.5049 21.7354 26.8252C21.8643 26.1396 21.9814 25.5859 22.0869 25.1641L23.7217 18.1504H26.4023L23.1328 31ZM28.0195 18.1504H32.0186C33.8408 18.1504 35.1621 18.4111 35.9824 18.9326C36.8086 19.4482 37.2217 20.2715 37.2217 21.4023C37.2217 22.1699 37.04 22.7998 36.6768 23.292C36.3193 23.7842 35.8418 24.0801 35.2441 24.1797V24.2676C36.0586 24.4492 36.6445 24.7891 37.002 25.2871C37.3652 25.7852 37.5469 26.4473 37.5469 27.2734C37.5469 28.4453 37.1221 29.3594 36.2725 30.0156C35.4287 30.6719 34.2803 31 32.8271 31H28.0195V18.1504ZM30.7441 23.2393H32.3262C33.0645 23.2393 33.5977 23.125 33.9258 22.8965C34.2598 22.668 34.4268 22.29 34.4268 21.7627C34.4268 21.2705 34.2451 20.9189 33.8818 20.708C33.5244 20.4912 32.9561 20.3828 32.1768 20.3828H30.7441V23.2393ZM30.7441 25.4014V28.75H32.5195C33.2695 28.75 33.8232 28.6064 34.1807 28.3193C34.5381 28.0322 34.7168 27.5928 34.7168 27.001C34.7168 25.9346 33.9551 25.4014 32.4316 25.4014H30.7441Z" fill="white"/>
<defs>
<radialGradient id="paint0_radial" cx="0" cy="0" r="1" gradientUnits="userSpaceOnUse" gradientTransform="translate(24 24) rotate(90) scale(24)">
<stop stop-color="#EB6608" stop-opacity="0.44"/>
<stop offset="1" stop-color="#EB6608"/>
</radialGradient>
</defs>
</svg>
